<svg id="fruits" xmlns="http://www.w3.org/2000/svg" viewBox="0 0 55.48 67.13"><defs><style>.cls-1{fill:#50a822;}.cls-2{fill:#7d0006;}.cls-3{fill:#ad0009;}.cls-4{fill:#578d38;}</style></defs><path class="cls-1" d="M46.73,46c0-.07-2.35-6.9-3.77-13.11-1.09-4.78-1-11.67-.83-14.89-3.24,2.19-11,7.78-14.69,13.06a50.58,50.58,0,0,0-6.65,14.51l-1.73-.43A51.57,51.57,0,0,1,26,30c4.87-7,16.19-14.22,16.67-14.52l1.49-.94L44,16.34c0,.1-.69,10.11.69,16.15s3.7,12.86,3.72,12.93Z" transform="translate(-7.26 -1.44)"/><path class="cls-2" d="M34.2,55.08a13.47,13.47,0,0,1-26.94,0c0-5.85,3.84-11.6,9.8-11.56,1.22,0,1.71.59,3.67.59s2.4-.61,3.59-.61C30.63,43.48,34.2,49.19,34.2,55.08Z" transform="translate(-7.26 -1.44)"/><path class="cls-2" d="M62.49,52.52a13.47,13.47,0,0,1-26.44,5.14c-1.12-5.74,1.55-12.11,7.41-13.21,1.2-.22,1.79.25,3.72-.13s2.24-1,3.4-1.28C56.78,41.82,61.37,46.74,62.49,52.52Z" transform="translate(-7.26 -1.44)"/><path class="cls-3" d="M20.73,44.11c-2,0-2.45-.58-3.67-.59-6,0-9.8,5.71-9.8,11.56a13.45,13.45,0,0,0,6.65,11.61,13.71,13.71,0,0,0,2.66.27A13.47,13.47,0,0,0,30,53.49c0-4-1.6-7.81-4.56-9.93a11.12,11.12,0,0,0-1.16-.06C23.13,43.5,22.69,44.11,20.73,44.11Z" transform="translate(-7.26 -1.44)"/><path class="cls-3" d="M50.58,43c-1.16.23-1.48.91-3.4,1.28s-2.52-.09-3.72.13c-5.86,1.1-8.53,7.47-7.41,13.21a13.45,13.45,0,0,0,6.41,9A13.47,13.47,0,0,0,58.34,50.94a12.8,12.8,0,0,0-4.9-8A9.63,9.63,0,0,0,50.58,43Z" transform="translate(-7.26 -1.44)"/><path class="cls-1" d="M26.59,17.72C18.27,15.09,14,5.16,14,5.16s9.21-5.66,17.53-3S44.11,14.69,44.11,14.69,34.9,20.35,26.59,17.72Z" transform="translate(-7.26 -1.44)"/><path class="cls-4" d="M44.12,14.69,14,5.17s4.28,9.93,12.59,12.56S44.12,14.69,44.12,14.69Z" transform="translate(-7.26 -1.44)"/></svg>