<svg id="fruits" xmlns="http://www.w3.org/2000/svg" viewBox="0 0 46.44 49.05"><defs><style>.cls-1{fill:#fd0;}.cls-2{fill:#fff21f;}</style></defs><path class="cls-1" d="M55.34,12.29a6.94,6.94,0,0,0-8.56-.63c-8.24-2.61-19,.82-26.72,9.3C11.64,30.2,9.51,42.41,14.27,50.45c-2.55,2.82-3.1,6.49-1.22,8.2s5.48.83,8.06-2c8.44,4,20.41.75,28.83-8.48,7.74-8.49,10.16-19.5,6.81-27.46A7,7,0,0,0,55.34,12.29Z" transform="translate(-11.78 -10.48)"/><path class="cls-2" d="M51.65,18.52a6.36,6.36,0,0,0-1.29-7.74L50,10.51a7,7,0,0,0-3.25,1.15c-8.24-2.61-19,.82-26.72,9.3-6.47,7.1-9.22,15.95-8,23.32.14.66.18,1,.39,1.81a17.24,17.24,0,0,0,1.81,4.36,9.53,9.53,0,0,0-1.93,3.18c1.82.91,4.63,0,6.72-2.24,7.72,3.65,18.66.69,26.36-7.76C52.5,35.87,54.72,25.81,51.65,18.52Z" transform="translate(-11.78 -10.48)"/></svg>