<svg id="fruits" xmlns="http://www.w3.org/2000/svg" viewBox="0 0 48.32 53.8"><defs><style>.cls-1{fill:#c45627;}.cls-2{fill:#990530;}.cls-3{fill:#c20632;}</style></defs><path class="cls-1" d="M41.08,14c.49,2.64-3.28,3.47-4.71,2.91S34.88,13.16,35.9,12c2-2.22,6.15-2.31,6.15-2.31S40.73,12.16,41.08,14Z" transform="translate(-10.9 -8.1)"/><path class="cls-1" d="M38.45,12.2c1.91,1.87-.69,4.72-2.18,5.09s-3.4-2.24-3.23-3.77c.34-2.94,3.71-5.42,3.71-5.42S37.08,10.86,38.45,12.2Z" transform="translate(-10.9 -8.1)"/><path class="cls-1" d="M31.1,12.2c-1.91,1.87.69,4.72,2.18,5.09s3.4-2.24,3.23-3.77C36.17,10.58,32.8,8.1,32.8,8.1S32.47,10.86,31.1,12.2Z" transform="translate(-10.9 -8.1)"/><path class="cls-1" d="M29,14c-.53,2.62,3.22,3.53,4.66,3s1.56-3.76.56-4.92c-1.93-2.25-6.1-2.42-6.1-2.42S29.35,12.12,29,14Z" transform="translate(-10.9 -8.1)"/><circle class="cls-2" cx="24.16" cy="29.64" r="24.16"/><path class="cls-3" d="M35.06,13.58c-13.34,0-24.16,3.92-24.16,24.16a24,24,0,0,0,4.91,14.59A24.15,24.15,0,0,0,54.56,33.08c0-7.1-1.39-12.21-3.78-15.85C46.55,14.46,41.06,13.58,35.06,13.58Z" transform="translate(-10.9 -8.1)"/></svg>