<svg id="fruits" xmlns="http://www.w3.org/2000/svg" viewBox="0 0 40.17 60.25"><defs><style>.cls-1{fill:#578d38;}.cls-2{fill:#50a822;}.cls-3{fill:#c40000;}.cls-4{fill:#e00000;}.cls-5{fill:#d4a626;}</style></defs><path class="cls-1" d="M34.33,22.84a15.66,15.66,0,0,1-7.88-5.24,15.64,15.64,0,0,1-2.56-9.11,15.55,15.55,0,0,1,7.88,5.24A15.55,15.55,0,0,1,34.33,22.84Z" transform="translate(-15.1 -4.92)"/><path class="cls-2" d="M34.06,22.8a15.61,15.61,0,0,1-9.44-.72,15.6,15.6,0,0,1-6.68-6.7,15.58,15.58,0,0,1,9.43.72A15.59,15.59,0,0,1,34.06,22.8Z" transform="translate(-15.1 -4.92)"/><path class="cls-1" d="M35.88,22.84a15.62,15.62,0,0,0,7.88-5.24,15.64,15.64,0,0,0,2.56-9.11,15.55,15.55,0,0,0-7.88,5.24A15.55,15.55,0,0,0,35.88,22.84Z" transform="translate(-15.1 -4.92)"/><path class="cls-2" d="M36.31,22.8a15.61,15.61,0,0,0,9.44-.72,15.6,15.6,0,0,0,6.68-6.7A15.61,15.61,0,0,0,43,16.1,15.6,15.6,0,0,0,36.31,22.8Z" transform="translate(-15.1 -4.92)"/><path class="cls-2" d="M35,22.67a15.6,15.6,0,0,1-3.29-8.87A15.61,15.61,0,0,1,35,4.92a15.61,15.61,0,0,1,3.29,8.88A15.6,15.6,0,0,1,35,22.67Z" transform="translate(-15.1 -4.92)"/><path class="cls-3" d="M55.27,35.28c0,7.4-9,29.9-20.09,29.9S15.1,42.68,15.1,35.28s3.27-15.72,20.24-15.72S55.27,27.89,55.27,35.28Z" transform="translate(-15.1 -4.92)"/><path class="cls-4" d="M29.73,60c11.1,0,20.09-22.5,20.09-29.9A16.86,16.86,0,0,0,48,22c-3-1.5-7-2.42-12.68-2.42-17,0-20.24,8.33-20.24,15.72,0,4.79,3.76,15.89,9.42,23.13A9.88,9.88,0,0,0,29.73,60Z" transform="translate(-15.1 -4.92)"/><path class="cls-5" d="M50.59,28.68a3,3,0,0,1-1.24,2s-1.25-.88-1.25-2,.56-2,1.25-2S50.59,27.6,50.59,28.68Z" transform="translate(-15.1 -4.92)"/><path class="cls-5" d="M44.68,37.71c0,1.09-1.25,2-1.25,2s-1.25-.88-1.25-2,.56-2,1.25-2S44.68,36.63,44.68,37.71Z" transform="translate(-15.1 -4.92)"/><path class="cls-5" d="M44.21,49.55c0,1.08-1.25,2-1.25,2s-1.24-.88-1.24-2,.56-2,1.24-2S44.21,48.46,44.21,49.55Z" transform="translate(-15.1 -4.92)"/><path class="cls-5" d="M29.73,49.55c0,1.08-1.25,2-1.25,2s-1.24-.88-1.24-2,.56-2,1.24-2S29.73,48.46,29.73,49.55Z" transform="translate(-15.1 -4.92)"/><path class="cls-5" d="M37,44c0,1.08-1.25,2-1.25,2s-1.24-.88-1.24-2,.56-2,1.24-2S37,42.93,37,44Z" transform="translate(-15.1 -4.92)"/><path class="cls-5" d="M37,57.25c0,1.09-1.25,2-1.25,2a3,3,0,0,1-1.24-2c0-1.08.56-2,1.24-2S37,56.17,37,57.25Z" transform="translate(-15.1 -4.92)"/><path class="cls-5" d="M22.88,28.68c0,1.09-1.25,2-1.25,2a3,3,0,0,1-1.24-2c0-1.08.55-2,1.24-2S22.88,27.6,22.88,28.68Z" transform="translate(-15.1 -4.92)"/><path class="cls-5" d="M36.74,28.68c0,1.09-1.25,2-1.25,2s-1.25-.88-1.25-2,.56-2,1.25-2S36.74,27.6,36.74,28.68Z" transform="translate(-15.1 -4.92)"/><path class="cls-5" d="M29.26,37.71a3,3,0,0,1-1.24,2s-1.25-.88-1.25-2,.56-2,1.25-2S29.26,36.63,29.26,37.71Z" transform="translate(-15.1 -4.92)"/></svg>